<svg xmlns="http://www.w3.org/2000/svg" viewBox="0 0 27.198 24.6">
  <defs>
    <style>
      .cls-1 {
        fill: #d0d2e2;
      }
    </style>
  </defs>
  <g id="iconfinder_Picture3_3289574" transform="translate(-5.099 -9.2)">
    <circle id="Ellipse_24" data-name="Ellipse 24" class="cls-1" cx="2.219" cy="2.219" r="2.219" transform="translate(24.405 9.2)"/>
    <circle id="Ellipse_25" data-name="Ellipse 25" class="cls-1" cx="2.219" cy="2.219" r="2.219" transform="translate(8.554 9.2)"/>
    <circle id="Ellipse_26" data-name="Ellipse 26" class="cls-1" cx="2.219" cy="2.219" r="2.219" transform="translate(16.48 9.2)"/>
    <path id="Path_198" data-name="Path 198" class="cls-1" d="M41.553,32.75l-1.427-5.262a1.322,1.322,0,0,0-.285-.507,5.505,5.505,0,0,0-2.187-1.395,5.278,5.278,0,0,0-3.424,0,5.293,5.293,0,0,0-2.187,1.395,1.608,1.608,0,0,0-.285.507L30.331,32.75a.967.967,0,0,0,.666,1.2.7.7,0,0,0,.254.032.98.98,0,0,0,.919-.7l1.268-4.628V44.8h1.9V35.73h1.268v9.035h1.9V28.66l1.268,4.628a.98.98,0,0,0,.919.7.7.7,0,0,0,.254-.032A1.015,1.015,0,0,0,41.553,32.75Z" transform="translate(-17.211 -10.996)"/>
    <path id="Path_199" data-name="Path 199" class="cls-1" d="M12.454,32.523l1.427-5.262a2.148,2.148,0,0,1,.38-.761,5.33,5.33,0,0,0-1.807-1.014,5.278,5.278,0,0,0-3.424,0A5.293,5.293,0,0,0,6.843,26.88a1.608,1.608,0,0,0-.285.507L5.131,32.681a.967.967,0,0,0,.666,1.2.7.7,0,0,0,.254.032.98.98,0,0,0,.919-.7l1.268-4.628V44.728h1.9V35.661h1.268V44.7h1.9V34.425A1.668,1.668,0,0,1,12.454,32.523Z" transform="translate(0 -10.928)"/>
    <path id="Path_200" data-name="Path 200" class="cls-1" d="M71.062,32.75,69.6,27.487a1.322,1.322,0,0,0-.285-.507,5.505,5.505,0,0,0-2.187-1.395,5.278,5.278,0,0,0-3.424,0A5.649,5.649,0,0,0,61.9,26.6a1.8,1.8,0,0,1,.38.729l1.427,5.262a1.631,1.631,0,0,1-.856,1.9V44.8h1.9V35.73h1.268v9.035h1.9V28.66l1.268,4.628a.98.98,0,0,0,.919.7.7.7,0,0,0,.254-.032A.986.986,0,0,0,71.062,32.75Z" transform="translate(-38.795 -10.996)"/>
  </g>
</svg>
