<svg xmlns="http://www.w3.org/2000/svg" viewBox="0 0 32.599 27.174">
  <defs>
    <style>
      .cls-1 {
        fill: #d0d2e2;
      }
    </style>
  </defs>
  <g id="if_icon-share_211886" transform="translate(-64 -96)">
    <path id="Path_1" data-name="Path 1" class="cls-1" d="M88.449,119.931H67.26V104.676h4.881a14.3,14.3,0,0,1,3.625-3.243H65.63A1.623,1.623,0,0,0,64,103.055v18.5a1.629,1.629,0,0,0,1.63,1.621H90.079a1.623,1.623,0,0,0,1.63-1.621V112.3l-3.26,2.666Zm-2.717-13.065v5.425L96.6,104.184,85.733,96v5.068c-13.141,0-13.583,13.948-13.583,13.948C75.868,108.946,78.6,106.866,85.733,106.866Z" transform="translate(0 0)"/>
  </g>
</svg>
