<svg xmlns="http://www.w3.org/2000/svg" viewBox="0 0 25 24.75">
  <defs>
    <style>
      .cls-1 {
        fill: #d0d2e2;
      }
    </style>
  </defs>
  <g id="Group_267" data-name="Group 267" transform="translate(-865 -11.5)">
    <path id="Path_139" data-name="Path 139" class="cls-1" d="M26.5,6H6.5A2.489,2.489,0,0,0,4.012,8.5L4,21a2.5,2.5,0,0,0,2.5,2.5h20A2.5,2.5,0,0,0,29,21V8.5A2.5,2.5,0,0,0,26.5,6ZM15.25,9.75h2.5v2.5h-2.5Zm0,3.75h2.5V16h-2.5ZM11.5,9.75H14v2.5H11.5Zm0,3.75H14V16H11.5ZM10.25,16H7.75V13.5h2.5Zm0-3.75H7.75V9.75h2.5ZM21.5,21h-10V18.5h10Zm0-5H19V13.5h2.5Zm0-3.75H19V9.75h2.5ZM25.25,16h-2.5V13.5h2.5Zm0-3.75h-2.5V9.75h2.5Z" transform="translate(861 12.75)"/>
    <path id="Path_139-2" data-name="Path 139" class="cls-1" d="M16.5,31l5-5h-10Z" transform="translate(893.5 42.5) rotate(180)"/>
  </g>
</svg>
