<svg xmlns="http://www.w3.org/2000/svg" viewBox="0 0 30.883 26.159">
  <defs>
    <style>
      .cls-1 {
        fill: #fff;
      }
    </style>
  </defs>
  <path id="iconfinder_clothing_accesories_clothes_fabric-11_498948" class="cls-1" d="M35.062,15.787c-.532-.678-4.55-1.21-6.632-2.808a.457.457,0,0,0-.484.145c-1.017,1.5-2.033,2.759-4.4,2.759s-3.388-1.259-4.405-2.759c-.145-.242-.484-.145-.484-.145-2.081,1.549-6.1,2.13-6.632,2.808A59.808,59.808,0,0,0,8.1,22.709a6.948,6.948,0,0,0,4.986,2.856c.532-.532,1.355-2.081,1.839-2.081.242,0,.726,1.646.726,5.18,0,2.662-.871,8.035-.871,9.73,2.081.775,6.341.726,8.762.726s6.68.048,8.762-.726c0-1.694-.871-7.067-.871-9.73,0-3.534.484-5.18.726-5.18.484,0,1.307,1.549,1.839,2.081a7.309,7.309,0,0,0,4.986-2.856A59.808,59.808,0,0,0,35.062,15.787Z" transform="translate(-8.1 -12.96)"/>
</svg>
