<svg xmlns="http://www.w3.org/2000/svg" viewBox="0 0 28 21.032">
  <defs>
    <style>
      .cls-1 {
        fill: #d0d2e2;
      }
    </style>
  </defs>
  <path id="iconfinder_backspace_216104" class="cls-1" d="M26.525,5H12.5A6.808,6.808,0,0,0,7.5,7.576L3.839,12.7c-.9,1.259-1.657,2.319-1.681,2.354a.9.9,0,0,0,0,.931c.032.046.778,1.089,1.666,2.333L7.5,23.458a6.8,6.8,0,0,0,5,2.574H26.525a3.509,3.509,0,0,0,3.505-3.505V8.505A3.509,3.509,0,0,0,26.525,5ZM23.31,18.731a1.4,1.4,0,1,1-1.983,1.983L18.112,17.5,14.9,20.714a1.4,1.4,0,1,1-1.983-1.983l3.215-3.215L12.915,12.3A1.4,1.4,0,1,1,14.9,10.318l3.215,3.215,3.215-3.215A1.4,1.4,0,0,1,23.31,12.3l-3.215,3.215Z" transform="translate(-2.03 -5)"/>
</svg>
