<svg xmlns="http://www.w3.org/2000/svg" viewBox="0 0 23.15 25.016">
  <defs>
    <style>
      .cls-1 {
        fill: #d0d2e2;
      }
    </style>
  </defs>
  <path id="iconfinder_Enter_Arrow_Way_Key_Wayfinding_Navigation_1343441" class="cls-1" d="M24.438,2a1.786,1.786,0,0,0-1.786,1.786v9.822c0,2.438-1.134,3.572-3.572,3.572H8.294l1.786-.893,2.295-2.295a1.787,1.787,0,1,0-2.527-2.527L3.6,17.715a1.786,1.786,0,0,0,0,2.527l6.25,6.25a1.787,1.787,0,1,0,2.527-2.527L9.964,21.644l-1.732-.893H19.08c4.4,0,7.143-2.741,7.143-7.143V3.786A1.786,1.786,0,0,0,24.438,2Z" transform="translate(-3.073 -2)"/>
</svg>
