<svg xmlns="http://www.w3.org/2000/svg" viewBox="0 0 28.771 17.9">
  <defs>
    <style>
      .cls-1 {
        fill: #d0d2e2;
      }
    </style>
  </defs>
  <g id="Group_290" data-name="Group 290" transform="translate(-505.229 -974.55)">
    <path id="iconfinder_icon-arrow-up-c_211624" class="cls-1" d="M119.638,87.142l6.861-6.554a2.115,2.115,0,0,1,2.927,0l6.887,6.554a1.932,1.932,0,0,1,0,2.823,2.161,2.161,0,0,1-2.953,0l-3.293-3.143V101a2.093,2.093,0,0,1-4.182,0V86.822l-3.293,3.149a2.161,2.161,0,0,1-2.953,0A1.94,1.94,0,0,1,119.638,87.142Z" transform="translate(608.228 855.525) rotate(90)"/>
    <rect id="Rectangle_1253" data-name="Rectangle 1253" class="cls-1" width="4" height="17" rx="2" transform="translate(530 975)"/>
  </g>
</svg>
