<svg xmlns="http://www.w3.org/2000/svg" viewBox="0 0 13.631 13.619">
  <defs>
    <style>
      .cls-1 {
        fill: #a3a5ae;
      }
    </style>
  </defs>
  <path id="iconfinder_cross-24_103181" class="cls-1" d="M14.948,3.13a.524.524,0,0,1,0,.739L10.876,7.937a.525.525,0,0,0,0,.74l4.07,4.069a.525.525,0,0,1,0,.74l-1.482,1.477a.528.528,0,0,1-.741,0L8.654,10.894a.526.526,0,0,0-.74,0L3.842,14.959a.526.526,0,0,1-.74,0L1.622,13.48a.525.525,0,0,1,0-.74L5.694,8.674a.525.525,0,0,0,0-.74l-4.07-4.07a.524.524,0,0,1,0-.74L3.107,1.647a.527.527,0,0,1,.741,0L7.915,5.715a.525.525,0,0,0,.74,0L12.727,1.65a.527.527,0,0,1,.74,0Z" transform="translate(-1.469 -1.495)"/>
</svg>
