<svg xmlns="http://www.w3.org/2000/svg" viewBox="0 0 41.5 20.682">
  <defs>
    <style>
      .cls-1 {
        fill: #eee;
      }
    </style>
  </defs>
  <g id="Group_330" data-name="Group 330" transform="translate(-1327 -130.568)">
    <g id="Group_329" data-name="Group 329" transform="translate(-330.5 98.5)">
      <path id="Path_2" data-name="Path 2" class="cls-1" d="M4.466,4.466,8.932,0H0Z" transform="translate(1699 40.409) rotate(180)"/>
      <path id="Path_167" data-name="Path 167" class="cls-1" d="M4.466,4.466,8.932,0H0Z" transform="translate(1690.068 44.5)"/>
      <path id="Path_3" data-name="Path 3" class="cls-1" d="M30.591,6H6.955a2.941,2.941,0,0,0-2.94,2.955L4,23.727a2.954,2.954,0,0,0,2.955,2.955H30.591a2.954,2.954,0,0,0,2.955-2.955V8.955A2.954,2.954,0,0,0,30.591,6ZM17.3,10.432H20.25v2.955H17.3Zm0,4.432H20.25v2.955H17.3Zm-4.432-4.432h2.955v2.955H12.864Zm0,4.432h2.955v2.955H12.864Zm-1.477,2.955H8.432V14.864h2.955Zm0-4.432H8.432V10.432h2.955Zm13.3,10.341H12.864V20.773H24.682Zm0-5.909H21.727V14.864h2.955Zm0-4.432H21.727V10.432h2.955Zm4.432,4.432H26.159V14.864h2.955Zm0-4.432H26.159V10.432h2.955Z" transform="translate(1653.5 26.068)"/>
    </g>
  </g>
</svg>
