<svg xmlns="http://www.w3.org/2000/svg" xmlns:xlink="http://www.w3.org/1999/xlink" viewBox="0 0 136 40">
  <defs>
    <style>
      .cls-1, .cls-4 {
        fill: #fff;
      }

      .cls-1 {
        stroke: #707070;
      }

      .cls-2 {
        fill: none;
      }

      .cls-3 {
        clip-path: url(#clip-path);
      }

      .cls-5 {
        clip-path: url(#clip-path-2);
      }

      .cls-6 {
        fill: #2ab1e0;
      }

      .cls-7 {
        fill: #038bbb;
      }
    </style>
    <clipPath id="clip-path">
      <rect id="Rectangle_496" data-name="Rectangle 496" class="cls-1" width="136" height="40" transform="translate(113 8)"/>
    </clipPath>
    <clipPath id="clip-path-2">
      <rect id="Rectangle_495" data-name="Rectangle 495" class="cls-2" width="24.034" height="18.891" transform="translate(-12.017 -9.445)"/>
    </clipPath>
  </defs>
  <g id="Mask_Group_27" data-name="Mask Group 27" class="cls-3" transform="translate(-113 -8)">
    <g id="logo" transform="translate(112.499 14.985)">
      <g id="Group_26" data-name="Group 26">
        <g id="Group_25" data-name="Group 25">
          <path id="Path_68" data-name="Path 68" class="cls-4" d="M10.173,6.223a9.488,9.488,0,0,1,6.32,2.113,6.944,6.944,0,0,1,2.549,5.5l.035.07L5.529,19.6a6.026,6.026,0,0,0,4.941,2.235,6.4,6.4,0,0,0,5.15-2.444l2.3,2.549A10.541,10.541,0,0,1,10.1,25.358a9.621,9.621,0,0,1-6.774-2.619A8.976,8.976,0,0,1,.5,15.826a9.351,9.351,0,0,1,1.467-5.22A9.138,9.138,0,0,1,5.6,7.289,10.231,10.231,0,0,1,10.173,6.223ZM4.272,15.9a4.476,4.476,0,0,0,.035.663l10.3-4.434a4.335,4.335,0,0,0-4.225-2.3,6.373,6.373,0,0,0-4.208,1.606A5.531,5.531,0,0,0,4.272,15.9Z"/>
          <path id="Path_69" data-name="Path 69" class="cls-4" d="M27,15.023V25.079H23.092V6.5H27V9.89a7.045,7.045,0,0,1,6.18-3.666,6.906,6.906,0,0,1,5.08,1.92A7.478,7.478,0,0,1,40.2,13.7V25.079H36.291v-10.2q0-5.133-4.26-5.133A5.117,5.117,0,0,0,28.5,11.095,5,5,0,0,0,27,15.023Z"/>
          <path id="Path_70" data-name="Path 70" class="cls-4" d="M47.08,22.7a9.51,9.51,0,0,1-2.619-6.983A9.142,9.142,0,0,1,47.15,8.807,8.865,8.865,0,0,1,53.5,6.223a7.081,7.081,0,0,1,6.041,3.492V6.5h3.911V25.079H59.545V22.041A7.436,7.436,0,0,1,56.7,24.5a7.764,7.764,0,0,1-3.474.856A8.36,8.36,0,0,1,47.08,22.7Zm1.292-6.826a5.816,5.816,0,0,0,1.711,4.347A5.552,5.552,0,0,0,54.1,21.9a5.186,5.186,0,0,0,3.911-1.693,6.062,6.062,0,0,0,1.606-4.347,6.376,6.376,0,0,0-1.606-4.434,5.109,5.109,0,0,0-3.946-1.781,5.322,5.322,0,0,0-4.015,1.781A6.242,6.242,0,0,0,48.372,15.878Z"/>
          <path id="Path_71" data-name="Path 71" class="cls-4" d="M77.353,25.358a9.379,9.379,0,0,1-6.669-2.636,9.044,9.044,0,0,1-2.793-6.9,8.966,8.966,0,0,1,2.916-6.931,10.136,10.136,0,0,1,7.106-2.671A9.642,9.642,0,0,1,85,9.122L82.7,11.95a7.418,7.418,0,0,0-4.853-2.1A6.123,6.123,0,0,0,73.6,11.479a5.386,5.386,0,0,0-1.8,4.19A6.081,6.081,0,0,0,77.964,21.8a6.806,6.806,0,0,0,4.906-2.374l2.3,2.514A10.69,10.69,0,0,1,77.353,25.358Z"/>
          <path id="Path_72" data-name="Path 72" class="cls-4" d="M92.961,9.645v9.428a3.062,3.062,0,0,0,.7,2.113,2.48,2.48,0,0,0,1.955.786,3.329,3.329,0,0,0,2.409-1.222l1.606,2.758a6.665,6.665,0,0,1-4.557,1.851,5.863,5.863,0,0,1-4.26-1.728,6.228,6.228,0,0,1-1.763-4.661V.672H92.96V6.5h4.888V9.645Z"/>
          <path id="Path_73" data-name="Path 73" class="cls-4" d="M136.291,10.169a5.188,5.188,0,0,0-4.365,1.885,8.033,8.033,0,0,0-1.467,5.063v7.961H126.55V6.5h3.911v3.736a8.1,8.1,0,0,1,2.567-2.863,6.185,6.185,0,0,1,3.439-1.152l.035,3.946Z"/>
        </g>
      </g>
      <g id="XMLID_13_" class="cls-5" transform="translate(112.122 15.266) rotate(-178.506)">
        <path id="Path_74" data-name="Path 74" class="cls-6" d="M-.038,9.445A9.788,9.788,0,0,1-9.815-.332l-1.461.017c-.676.01-.938-.455-.582-1.029L-8.975-6a.722.722,0,0,1,1.318-.013L-4.667-1.43C-4.3-.863-4.549-.4-5.224-.386l-1.582.019c0,.012,0,.023,0,.035A6.776,6.776,0,0,0-.038,6.435a6.718,6.718,0,0,0,4.322-1.6L6,7.342A9.717,9.717,0,0,1-.038,9.445Z"/>
        <path id="Path_75" data-name="Path 75" class="cls-7" d="M11.858,1.344,8.975,6a.721.721,0,0,1-1.318.014L4.667,1.43C4.3.862,4.549.394,5.224.386L6.8.367c0-.012,0-.023,0-.035A6.775,6.775,0,0,0,.038-6.437a6.683,6.683,0,0,0-4.321,1.6L-6-7.342a9.709,9.709,0,0,1,6.039-2.1A9.788,9.788,0,0,1,9.816.331L11.278.313C11.951.3,12.214.769,11.858,1.344Z"/>
      </g>
    </g>
  </g>
</svg>
