<svg xmlns="http://www.w3.org/2000/svg" width="22" height="28.322" viewBox="0 0 22 28.322">
  <g id="Group_295" data-name="Group 295" transform="translate(-519 -952.678)">
    <g id="Group_293" data-name="Group 293" transform="translate(-44 157.679)">
      <rect id="Rectangle_1256" data-name="Rectangle 1256" width="6.286" height="5.5" rx="1" transform="translate(563 795)" fill="#e4e5ef"/>
      <rect id="Rectangle_1257" data-name="Rectangle 1257" width="6.286" height="5.5" rx="1" transform="translate(570.857 795)" fill="#e4e5ef"/>
      <rect id="Rectangle_1258" data-name="Rectangle 1258" width="6.286" height="5.5" rx="1" transform="translate(578.714 795)" fill="#e4e5ef"/>
      <rect id="Rectangle_1259" data-name="Rectangle 1259" width="6.286" height="5.5" rx="1" transform="translate(563 802.071)" fill="#e4e5ef"/>
      <rect id="Rectangle_1260" data-name="Rectangle 1260" width="6.286" height="5.5" rx="1" transform="translate(570.857 802.071)" fill="#e4e5ef"/>
      <rect id="Rectangle_1261" data-name="Rectangle 1261" width="6.286" height="5.5" rx="1" transform="translate(578.714 802.071)" fill="#e4e5ef"/>
      <rect id="Rectangle_1262" data-name="Rectangle 1262" width="6.286" height="5.5" rx="1" transform="translate(563 809.143)" fill="#e4e5ef"/>
      <rect id="Rectangle_1263" data-name="Rectangle 1263" width="6.286" height="5.5" rx="1" transform="translate(570.857 809.143)" fill="#e4e5ef"/>
      <rect id="Rectangle_1264" data-name="Rectangle 1264" width="6.286" height="5.5" rx="1" transform="translate(578.714 809.143)" fill="#e4e5ef"/>
    </g>
    <g id="Group_294" data-name="Group 294" transform="translate(1407 992.5) rotate(180)">
      <path id="Path_139" data-name="Path 139" d="M16.5,31l5-5h-10Z" transform="translate(893.5 42.5) rotate(180)" fill="#e4e5ef"/>
    </g>
  </g>
</svg>
